HIERARCHY
ROOT Model_Hips
{
	OFFSET 0.000000 96.915077 0.000000
	CHANNELS 6 Xposition Yposition Zposition Xrotation Yrotation Zrotation
	JOINT Model_Spine
	{
		OFFSET 0.000000 11.137703 -1.289900
		CHANNELS 3 Xrotation Yrotation Zrotation
		JOINT Model_Spine1
		{
			OFFSET 0.000000 12.993942 -1.504922
			CHANNELS 3 Xrotation Yrotation Zrotation
			JOINT Model_Spine2
			{
				OFFSET 0.000000 14.850220 -1.719911
				CHANNELS 3 Xrotation Yrotation Zrotation
				JOINT Model_Neck
				{
					OFFSET 0.000000 16.706543 -1.934903
					CHANNELS 3 Xrotation Yrotation Zrotation
					JOINT Model_Head
					{
						OFFSET 0.000000 10.471298 2.002100
						CHANNELS 3 Xrotation Yrotation Zrotation
						JOINT Model_HeadTop_End
						{
							OFFSET 0.000000 20.842606 3.985100
							CHANNELS 3 Xrotation Yrotation Zrotation
							End Site
							{
								OFFSET 0.000000 21.220154 0.000000
							}
						}
					}
				}
				JOINT Model_LeftShoulder
				{
					OFFSET 7.008500 14.768600 -1.919946
					CHANNELS 3 Xrotation Yrotation Zrotation
					JOINT Model_LeftArm
					{
						OFFSET 14.126271 -3.718048 0.029937
						CHANNELS 3 Xrotation Yrotation Zrotation
						JOINT Model_LeftForeArm
						{
							OFFSET 28.282801 0.000000 0.000000
							CHANNELS 3 Xrotation Yrotation Zrotation
							JOINT Model_LeftHand
							{
								OFFSET 26.204689 0.000000 0.000000
								CHANNELS 3 Xrotation Yrotation Zrotation
								End Site
								{
									OFFSET 26.204704 0.000000 0.000000
								}
							}
						}
					}
				}
				JOINT Model_RightShoulder
				{
					OFFSET -7.008500 14.768555 -1.949840
					CHANNELS 3 Xrotation Yrotation Zrotation
					JOINT Model_RightArm
					{
						OFFSET -14.126281 -3.718018 -0.029932
						CHANNELS 3 Xrotation Yrotation Zrotation
						JOINT Model_RightForeArm
						{
							OFFSET -28.283798 0.000000 -0.000001
							CHANNELS 3 Xrotation Yrotation Zrotation
							JOINT Model_RightHand
							{
								OFFSET -26.204193 0.000000 -0.000001
								CHANNELS 3 Xrotation Yrotation Zrotation
								End Site
								{
									OFFSET -26.204208 0.000000 -0.000001
								}
							}
						}
					}
				}
			}
		}
	}
	JOINT Model_LeftUpLeg
	{
		OFFSET 8.327700 -6.193199 -0.402800
		CHANNELS 3 Xrotation Yrotation Zrotation
		JOINT Model_LeftLeg
		{
			OFFSET 0.735802 -42.108742 -0.610721
			CHANNELS 3 Xrotation Yrotation Zrotation
			JOINT Model_LeftFoot
			{
				OFFSET -0.735806 -36.833748 -0.172876
				CHANNELS 3 Xrotation Yrotation Zrotation
				JOINT Model_LeftToeBase
				{
					OFFSET -0.565857 -11.977769 16.297714
					CHANNELS 3 Xrotation Yrotation Zrotation
					JOINT Model_LeftToe_End
					{
						OFFSET -0.111712 -0.312793 7.857784
						CHANNELS 3 Xrotation Yrotation Zrotation
						End Site
						{
							OFFSET -0.111712 -0.312793 7.857784
						}
					}
				}
			}
		}
	}
	JOINT Model_RightUpLeg
	{
		OFFSET -8.327700 -6.193199 -0.516500
		CHANNELS 3 Xrotation Yrotation Zrotation
		JOINT Model_RightLeg
		{
			OFFSET -0.735785 -42.108738 -0.434061
			CHANNELS 3 Xrotation Yrotation Zrotation
			JOINT Model_RightFoot
			{
				OFFSET 0.735776 -36.833748 -0.021630
				CHANNELS 3 Xrotation Yrotation Zrotation
				JOINT Model_RightToeBase
				{
					OFFSET 0.565817 -11.977745 15.903093
					CHANNELS 3 Xrotation Yrotation Zrotation
					JOINT Model_RightToe_End
					{
						OFFSET 0.111702 -0.312791 7.811342
						CHANNELS 3 Xrotation Yrotation Zrotation
						End Site
						{
							OFFSET 0.111702 -0.312791 7.811342
						}
					}
				}
			}
		}
	}
}
MOTION
Frames: 10
Frame Time: 0.016667
0.286163 90.421036 1.833534 5.448766 2.898367 -2.962756 4.925087 1.351946 1.332457 9.857122 2.800250 1.722123 9.857123 2.800250 1.722123 -2.495275 -1.054329 -0.099084 -2.495283 -1.054332 -0.099084 -0.000000 0.000000 -0.000000 1.084057 -1.226562 -9.108940 21.951229 16.129881 -69.744598 5.201816 -103.989856 -6.123467 0.000001 -0.000001 0.000000 0.776472 6.054097 9.529800 5.506730 -10.523605 55.529308 -70.895765 86.710454 75.613193 -0.000001 0.000001 0.000001 -36.905445 6.207711 -1.775114 100.656259 14.398228 3.969178 -18.128369 -0.920839 4.408785 -0.898564 -2.887886 -6.627554 -0.000002 0.000000 -0.000000 -16.827506 -5.242995 4.106606 49.691569 0.058263 -1.509525 -30.201768 0.172689 -1.262993 -10.243096 12.978176 -1.678546 0.000000 0.000001 0.000000 
0.750877 91.806793 11.058271 3.091274 0.586658 0.434989 4.805004 1.518852 0.452948 9.626596 3.123981 0.274439 9.626590 3.123979 0.274439 -0.807966 -1.115771 -0.498679 -0.807970 -1.115767 -0.498679 0.000001 -0.000000 0.000000 1.017757 -3.352050 -7.690128 20.366314 21.388575 -69.829484 3.146249 -98.519837 -7.266077 0.000001 0.000001 -0.000001 0.471248 6.581699 7.077381 2.677230 -8.531781 52.506335 -124.820997 83.187340 129.906141 0.000003 0.000003 -0.000001 -45.018077 4.657918 -1.984769 96.034256 14.829264 4.043104 -10.185941 -0.951683 5.968782 -3.283804 -2.438949 -5.653315 -0.000003 -0.000000 -0.000001 -8.847072 -4.566074 0.781220 49.207855 0.928631 -3.202385 -24.598325 0.053122 0.042052 -19.656697 13.502023 0.910693 0.000000 0.000000 -0.000000 
1.233557 92.497437 20.382179 0.111662 -1.505327 3.800506 4.734543 1.518655 -0.393617 9.488553 3.163839 -0.986325 9.488543 3.163836 -0.986325 0.884086 -1.124053 -0.875937 0.884102 -1.124048 -0.875936 -0.000001 0.000000 0.000000 0.950474 -5.646695 -7.066007 19.644693 26.553704 -68.303408 -44.944042 -91.993318 -56.510161 0.000001 -0.000000 0.000001 0.215431 7.052319 4.417649 -0.696325 -7.601965 49.506611 -136.723913 80.118460 141.096422 -0.000001 0.000002 -0.000003 -49.965761 2.696778 -3.359199 89.709931 15.934534 4.156230 -4.573294 -0.829042 6.393433 -4.875796 -3.545089 -3.061968 -0.000002 -0.000001 -0.000000 -3.190846 -4.010670 -3.495016 52.421719 1.072276 -4.187360 -10.564090 0.320912 1.635198 -43.734989 9.798411 6.403900 0.000001 0.000001 0.000000 
1.714527 92.369339 29.294048 -3.259004 -4.054241 6.503659 4.910087 1.505580 -1.247814 9.838373 3.169747 -2.175854 9.838372 3.169749 -2.175856 2.465453 -1.106350 -1.222423 2.465477 -1.106349 -1.222423 -0.000001 -0.000000 -0.000000 0.873616 -7.727235 -6.705341 19.528679 31.328216 -66.134099 -131.666649 -98.266765 -145.355933 0.000000 -0.000000 0.000001 -0.010824 7.405829 1.517418 -3.959892 -7.479182 46.796689 -143.758256 76.454822 146.944826 0.000001 -0.000000 -0.000000 -52.501359 0.827736 -4.853297 82.097166 18.774131 4.767689 -2.050868 -0.761461 6.108493 -5.330143 -5.944697 0.652707 0.000001 0.000000 -0.000002 -0.126131 -1.181987 -8.213816 54.693464 2.313789 -4.544005 16.297246 0.677829 -0.305167 -67.836565 1.418173 6.763086 -0.000000 0.000000 -0.000000 
1.986198 91.364899 38.216473 -6.505725 -7.685323 8.594502 5.246336 1.616686 -2.193509 10.507890 3.279738 -3.461314 10.507892 3.279741 -3.461315 3.831888 -1.039322 -1.528579 3.831901 -1.039323 -1.528580 -0.000001 0.000000 0.000000 0.774299 -9.387643 -6.438874 20.205199 35.514593 -63.760096 -135.636547 -107.342618 -152.241474 -0.000002 -0.000001 0.000003 -0.199670 7.579313 -1.593969 -6.612556 -8.410410 44.562012 -147.787699 71.668410 149.583356 -0.000006 0.000000 0.000001 -52.523745 -0.460183 -5.456628 73.236457 22.973056 5.700622 -2.566443 -0.792246 5.934887 -4.770383 -8.955204 4.908101 0.000000 0.000001 -0.000002 3.259835 3.416909 -12.386955 58.916372 5.060097 -3.836422 36.486290 -0.312720 -2.843531 -65.145627 -3.034015 13.408780 0.000002 -0.000000 -0.000000 
1.757792 89.645248 47.725861 -9.047064 -12.083039 10.131376 5.558498 1.748118 -2.978885 11.141808 3.440274 -4.764982 11.141813 3.440270 -4.764979 4.905875 -0.902201 -1.805705 4.905867 -0.902201 -1.805704 -0.000002 0.000000 0.000000 0.652092 -10.476711 -6.079470 21.852038 38.946118 -61.843593 -138.558679 -116.520309 -158.409285 -0.000000 0.000000 0.000002 -0.336791 7.561599 -4.699382 -7.991918 -10.475024 42.952956 -150.038438 65.600019 150.664862 -0.000002 -0.000000 0.000000 -50.495005 -1.505446 -4.901585 63.720979 26.660460 6.547833 -4.273304 -0.886881 6.490161 -4.541800 -11.249605 8.545996 0.000000 -0.000000 0.000004 10.658660 5.469302 -14.044395 57.892424 8.324262 -1.343533 49.001382 -0.418163 -2.454421 -30.727720 -4.787432 10.873116 -0.000001 -0.000000 -0.000000 
1.243572 87.137878 57.078545 -10.671425 -16.342005 11.316276 5.777582 1.792561 -3.533622 11.598089 3.450189 -5.915490 11.598086 3.450194 -5.915492 5.658451 -0.683059 -2.087049 5.658450 -0.683059 -2.087049 -0.000001 -0.000000 -0.000000 0.522792 -10.917883 -5.526619 24.556589 41.465587 -61.039324 -142.585567 -125.131388 -165.408959 0.000002 0.000000 0.000000 -0.402403 7.421401 -7.423893 -7.388202 -13.516209 42.105381 -151.539017 58.470941 151.678462 -0.000001 -0.000001 0.000000 -47.970232 -3.019729 -3.779476 53.623955 28.367382 7.372002 -4.050099 -0.964669 7.957160 -5.391879 -11.789754 10.073214 0.000002 -0.000001 0.000000 8.238748 7.256400 -12.908475 63.571699 11.698630 2.082558 53.162374 2.573052 3.323785 -15.048444 -7.727305 17.301141 0.000001 0.000001 0.000004 
0.862011 83.873955 66.340782 -11.634532 -19.795039 12.325390 5.927458 1.666709 -3.939159 11.907405 3.146129 -6.800599 11.907407 3.146133 -6.800602 6.109889 -0.381396 -2.417983 6.109851 -0.381395 -2.417980 0.000000 0.000000 -0.000000 0.414826 -10.688577 -4.861030 28.190069 42.898571 -61.706340 -146.881183 -132.549233 -171.897188 0.000003 -0.000002 -0.000003 -0.375883 7.299888 -9.353463 -4.225924 -17.137619 42.191598 -152.536962 50.947047 153.206074 0.000002 -0.000001 0.000000 -45.683997 -5.184721 -2.752012 43.693560 28.120775 8.645730 -2.356415 -0.946607 9.475098 -6.035124 -11.092180 9.740266 -0.000000 0.000002 -0.000003 4.456454 8.008560 -13.339692 70.308731 15.318265 4.893721 52.288745 4.460000 5.958330 -13.351273 -9.122354 18.639793 -0.000001 0.000001 0.000001 
0.649137 79.837669 74.396973 -12.211500 -22.734309 13.294926 6.031609 1.427804 -4.226267 12.111663 2.599638 -7.393913 12.111660 2.599642 -7.393914 6.309780 -0.006198 -2.838077 6.309763 -0.006192 -2.838075 -0.000002 -0.000000 -0.000000 0.359117 -9.792231 -4.379177 32.308799 43.073027 -63.696138 -150.503273 -138.298094 -176.738030 -0.000002 0.000001 0.000003 -0.246792 7.358118 -10.189620 1.690250 -20.768310 43.430441 -152.511526 44.129958 154.799134 0.000002 -0.000001 0.000000 -43.856662 -7.575794 -1.552610 34.862047 25.854416 10.133991 0.244694 -0.799387 10.399516 -5.722748 -10.021977 8.610606 0.000001 0.000001 0.000000 -1.311013 7.564432 -13.376464 78.438664 19.257701 6.849609 50.582236 5.808888 7.979663 -10.216557 -8.514697 18.537927 -0.000000 -0.000002 -0.000001 
0.691803 75.130119 82.450806 -12.455372 -26.057105 14.518464 6.119807 1.188895 -4.456416 12.279726 2.084010 -7.840960 12.279726 2.084011 -7.840955 6.309909 0.427285 -3.363306 6.309922 0.427293 -3.363315 0.000002 0.000001 0.000000 0.380960 -8.254294 -4.531582 36.179881 41.896315 -66.345719 -152.843596 -142.219551 -179.529473 0.000000 0.000001 -0.000001 -0.025362 7.702412 -9.861654 9.917771 -23.782022 45.990870 -151.113496 39.370498 155.834290 -0.000000 0.000000 0.000000 -42.629410 -9.384927 -0.017821 28.562782 21.534156 11.254680 3.889915 -0.515824 10.866986 -5.337324 -8.921899 7.445815 0.000003 -0.000002 0.000002 -6.987639 7.970621 -13.897562 86.086823 23.420942 9.635320 48.238559 6.537459 9.353382 -8.480894 -7.899319 17.774087 0.000001 0.000000 0.000000 
